<svg width="249" height="59" viewBox="0 0 249 59" fill="none" xmlns="http://www.w3.org/2000/svg">
<rect width="249" height="59" rx="29.5" fill="white"/>
<path d="M44.5 46C43.675 46 42.969 45.7065 42.382 45.1195C41.794 44.5315 41.5 43.825 41.5 43C41.5 42.175 41.794 41.4685 42.382 40.8805C42.969 40.2935 43.675 40 44.5 40C45.325 40 46.031 40.2935 46.618 40.8805C47.206 41.4685 47.5 42.175 47.5 43C47.5 43.825 47.206 44.5315 46.618 45.1195C46.031 45.7065 45.325 46 44.5 46ZM59.5 46C58.675 46 57.969 45.7065 57.382 45.1195C56.794 44.5315 56.5 43.825 56.5 43C56.5 42.175 56.794 41.4685 57.382 40.8805C57.969 40.2935 58.675 40 59.5 40C60.325 40 61.0315 40.2935 61.6195 40.8805C62.2065 41.4685 62.5 42.175 62.5 43C62.5 43.825 62.2065 44.5315 61.6195 45.1195C61.0315 45.7065 60.325 46 59.5 46ZM41.8 19H63.925C64.5 19 64.9375 19.256 65.2375 19.768C65.5375 20.281 65.55 20.8 65.275 21.325L59.95 30.925C59.675 31.425 59.306 31.8125 58.843 32.0875C58.381 32.3625 57.875 32.5 57.325 32.5H46.15L44.5 35.5H62.5V38.5H44.5C43.375 38.5 42.525 38.006 41.95 37.018C41.375 36.031 41.35 35.05 41.875 34.075L43.9 30.4L38.5 19H35.5V16H40.375L41.8 19Z" fill="black"/>
<path d="M89.8633 32.5273H95.5469C95.4688 34.6628 95.0391 36.4661 94.2578 37.9375C93.4766 39.3958 92.3633 40.5026 90.918 41.2578C89.4857 42.013 87.7539 42.3906 85.7227 42.3906C84.1471 42.3906 82.7474 42.1302 81.5234 41.6094C80.2995 41.0755 79.2578 40.2943 78.3984 39.2656C77.5391 38.237 76.888 36.9674 76.4453 35.457C76.0156 33.9336 75.8008 32.1823 75.8008 30.2031V25.3789C75.8008 23.3997 76.0286 21.6484 76.4844 20.125C76.9531 18.6016 77.6172 17.3255 78.4766 16.2969C79.349 15.2552 80.3971 14.474 81.6211 13.9531C82.8581 13.4193 84.2513 13.1523 85.8008 13.1523C87.8711 13.1523 89.6029 13.543 90.9961 14.3242C92.3893 15.1055 93.4635 16.2448 94.2188 17.7422C94.987 19.2266 95.4492 21.043 95.6055 23.1914H89.9023C89.8633 21.8372 89.707 20.776 89.4336 20.0078C89.1732 19.2266 88.7565 18.6797 88.1836 18.3672C87.6107 18.0417 86.8164 17.8789 85.8008 17.8789C85.0456 17.8789 84.3945 18.0156 83.8477 18.2891C83.3008 18.5495 82.8516 18.9727 82.5 19.5586C82.1484 20.1445 81.888 20.9128 81.7188 21.8633C81.5625 22.8138 81.4844 23.9727 81.4844 25.3398V30.2031C81.4844 31.5443 81.556 32.6901 81.6992 33.6406C81.8424 34.5781 82.0703 35.3464 82.3828 35.9453C82.6953 36.5443 83.1185 36.9805 83.6523 37.2539C84.1992 37.5273 84.8893 37.6641 85.7227 37.6641C86.6862 37.6641 87.4609 37.5208 88.0469 37.2344C88.6458 36.9479 89.0885 36.4336 89.375 35.6914C89.6615 34.9492 89.8242 33.8945 89.8633 32.5273ZM98.2227 32.1562V30.7305C98.2227 29.0768 98.418 27.612 98.8086 26.3359C99.2122 25.0599 99.7852 23.9922 100.527 23.1328C101.27 22.2604 102.161 21.6029 103.203 21.1602C104.258 20.7044 105.436 20.4766 106.738 20.4766C108.053 20.4766 109.232 20.7044 110.273 21.1602C111.328 21.6029 112.227 22.2604 112.969 23.1328C113.724 23.9922 114.303 25.0599 114.707 26.3359C115.111 27.612 115.312 29.0768 115.312 30.7305V32.1562C115.312 33.7969 115.111 35.2552 114.707 36.5312C114.303 37.8073 113.724 38.8815 112.969 39.7539C112.227 40.6263 111.335 41.2839 110.293 41.7266C109.251 42.1693 108.079 42.3906 106.777 42.3906C105.475 42.3906 104.297 42.1693 103.242 41.7266C102.201 41.2839 101.302 40.6263 100.547 39.7539C99.7917 38.8815 99.2122 37.8073 98.8086 36.5312C98.418 35.2552 98.2227 33.7969 98.2227 32.1562ZM103.691 30.7305V32.1562C103.691 33.1328 103.757 33.9792 103.887 34.6953C104.03 35.4115 104.232 36.0039 104.492 36.4727C104.766 36.9414 105.091 37.2865 105.469 37.5078C105.846 37.7292 106.283 37.8398 106.777 37.8398C107.272 37.8398 107.715 37.7292 108.105 37.5078C108.496 37.2865 108.815 36.9414 109.062 36.4727C109.323 36.0039 109.512 35.4115 109.629 34.6953C109.759 33.9792 109.824 33.1328 109.824 32.1562V30.7305C109.824 29.7799 109.753 28.9466 109.609 28.2305C109.466 27.5013 109.264 26.9089 109.004 26.4531C108.743 25.9844 108.418 25.6328 108.027 25.3984C107.65 25.151 107.22 25.0273 106.738 25.0273C106.257 25.0273 105.827 25.151 105.449 25.3984C105.085 25.6328 104.766 25.9844 104.492 26.4531C104.232 26.9089 104.03 27.5013 103.887 28.2305C103.757 28.9466 103.691 29.7799 103.691 30.7305ZM124.277 25.2422V42H118.789V20.8672H123.945L124.277 25.2422ZM123.496 30.7109L121.992 30.75C121.966 29.2656 122.096 27.8984 122.383 26.6484C122.669 25.3984 123.099 24.3112 123.672 23.3867C124.258 22.4622 124.993 21.7461 125.879 21.2383C126.764 20.7305 127.799 20.4766 128.984 20.4766C129.753 20.4766 130.462 20.6198 131.113 20.9062C131.764 21.1797 132.331 21.6159 132.812 22.2148C133.294 22.8008 133.665 23.569 133.926 24.5195C134.186 25.457 134.316 26.5833 134.316 27.8984V42H128.848V28.5625C128.848 27.625 128.757 26.9089 128.574 26.4141C128.392 25.9062 128.132 25.5547 127.793 25.3594C127.454 25.151 127.038 25.0469 126.543 25.0469C126.022 25.0469 125.566 25.1901 125.176 25.4766C124.785 25.763 124.466 26.1667 124.219 26.6875C123.984 27.1953 123.802 27.7943 123.672 28.4844C123.555 29.1745 123.496 29.9167 123.496 30.7109ZM133.789 30.1641L131.816 30.418C131.79 29.0247 131.914 27.7292 132.188 26.5312C132.461 25.3203 132.884 24.2656 133.457 23.3672C134.03 22.4557 134.746 21.7461 135.605 21.2383C136.478 20.7305 137.487 20.4766 138.633 20.4766C139.492 20.4766 140.273 20.6198 140.977 20.9062C141.68 21.1927 142.279 21.6549 142.773 22.293C143.281 22.918 143.665 23.7448 143.926 24.7734C144.199 25.8021 144.336 27.0521 144.336 28.5234V42H138.848V28.543C138.848 27.5924 138.757 26.8633 138.574 26.3555C138.392 25.8477 138.132 25.5026 137.793 25.3203C137.454 25.138 137.051 25.0469 136.582 25.0469C136.113 25.0469 135.703 25.1771 135.352 25.4375C135.013 25.6979 134.727 26.0625 134.492 26.5312C134.258 26.987 134.082 27.5273 133.965 28.1523C133.848 28.7643 133.789 29.4349 133.789 30.1641ZM153.926 24.9297V50.125H148.477V20.8672H153.516L153.926 24.9297ZM164.902 30.7109V32.1172C164.902 33.7708 164.759 35.2357 164.473 36.5117C164.186 37.7747 163.757 38.849 163.184 39.7344C162.624 40.6068 161.921 41.2708 161.074 41.7266C160.228 42.1693 159.238 42.3906 158.105 42.3906C157.051 42.3906 156.139 42.1432 155.371 41.6484C154.616 41.1406 153.978 40.444 153.457 39.5586C152.936 38.6732 152.52 37.638 152.207 36.4531C151.895 35.2682 151.654 33.9987 151.484 32.6445V30.457C151.641 29.0117 151.868 27.6836 152.168 26.4727C152.467 25.2487 152.878 24.1875 153.398 23.2891C153.932 22.3906 154.577 21.7005 155.332 21.2188C156.1 20.724 157.012 20.4766 158.066 20.4766C159.212 20.4766 160.208 20.6849 161.055 21.1016C161.914 21.5182 162.624 22.1497 163.184 22.9961C163.757 23.8294 164.186 24.8906 164.473 26.1797C164.759 27.4688 164.902 28.9792 164.902 30.7109ZM159.434 32.1172V30.7109C159.434 29.6953 159.375 28.8294 159.258 28.1133C159.154 27.3971 158.984 26.8112 158.75 26.3555C158.516 25.8997 158.21 25.5677 157.832 25.3594C157.454 25.151 156.992 25.0469 156.445 25.0469C155.911 25.0469 155.443 25.151 155.039 25.3594C154.648 25.5677 154.329 25.8737 154.082 26.2773C153.835 26.668 153.646 27.1497 153.516 27.7227C153.385 28.2826 153.314 28.9206 153.301 29.6367V33.4648C153.327 34.3112 153.438 35.0599 153.633 35.7109C153.841 36.362 154.173 36.8828 154.629 37.2734C155.085 37.651 155.703 37.8398 156.484 37.8398C157.044 37.8398 157.507 37.7227 157.871 37.4883C158.249 37.2539 158.555 36.9023 158.789 36.4336C159.023 35.9648 159.186 35.3724 159.277 34.6562C159.382 33.9401 159.434 33.0938 159.434 32.1172ZM173.73 25.5742V42H168.262V20.8672H173.418L173.73 25.5742ZM178.711 20.7109L178.633 26.1602C178.385 26.1081 178.086 26.069 177.734 26.043C177.396 26.0169 177.096 26.0039 176.836 26.0039C176.224 26.0039 175.703 26.1016 175.273 26.2969C174.844 26.4792 174.486 26.7591 174.199 27.1367C173.926 27.5013 173.717 27.957 173.574 28.5039C173.431 29.0508 173.346 29.6693 173.32 30.3594L172.285 29.9688C172.285 28.5885 172.389 27.3255 172.598 26.1797C172.819 25.0208 173.145 24.0182 173.574 23.1719C174.004 22.3125 174.518 21.6484 175.117 21.1797C175.729 20.7109 176.419 20.4766 177.188 20.4766C177.448 20.4766 177.721 20.5026 178.008 20.5547C178.307 20.5938 178.542 20.6458 178.711 20.7109ZM190.234 37.1367V27.3711C190.234 26.7331 190.156 26.2253 190 25.8477C189.857 25.4701 189.635 25.1966 189.336 25.0273C189.049 24.8451 188.698 24.7539 188.281 24.7539C187.812 24.7539 187.422 24.8516 187.109 25.0469C186.797 25.2422 186.562 25.5221 186.406 25.8867C186.263 26.2513 186.191 26.6875 186.191 27.1953H180.703C180.703 26.2839 180.879 25.4245 181.23 24.6172C181.582 23.7969 182.096 23.0807 182.773 22.4688C183.464 21.8438 184.284 21.3555 185.234 21.0039C186.185 20.6523 187.253 20.4766 188.438 20.4766C189.844 20.4766 191.094 20.7174 192.188 21.1992C193.281 21.668 194.147 22.4167 194.785 23.4453C195.423 24.474 195.742 25.8086 195.742 27.4492V36.8633C195.742 38.0482 195.801 39.0117 195.918 39.7539C196.048 40.4961 196.237 41.1341 196.484 41.668V42H190.977C190.729 41.4141 190.54 40.6849 190.41 39.8125C190.293 38.9271 190.234 38.0352 190.234 37.1367ZM190.898 29.0898L190.918 32.3711H188.906C188.385 32.3711 187.93 32.4557 187.539 32.625C187.161 32.7943 186.842 33.0352 186.582 33.3477C186.322 33.6471 186.126 33.9987 185.996 34.4023C185.879 34.806 185.82 35.2357 185.82 35.6914C185.82 36.1992 185.892 36.6289 186.035 36.9805C186.178 37.332 186.393 37.599 186.68 37.7812C186.966 37.9635 187.305 38.0547 187.695 38.0547C188.294 38.0547 188.815 37.931 189.258 37.6836C189.701 37.4362 190.026 37.1367 190.234 36.7852C190.456 36.4336 190.527 36.1081 190.449 35.8086L191.699 37.9375C191.543 38.4193 191.328 38.9206 191.055 39.4414C190.794 39.9622 190.462 40.444 190.059 40.8867C189.655 41.3294 189.154 41.694 188.555 41.9805C187.969 42.2539 187.272 42.3906 186.465 42.3906C185.332 42.3906 184.297 42.1302 183.359 41.6094C182.422 41.0885 181.68 40.3594 181.133 39.4219C180.599 38.4844 180.332 37.3711 180.332 36.082C180.332 35.0143 180.501 34.0508 180.84 33.1914C181.191 32.319 181.712 31.5833 182.402 30.9844C183.092 30.3724 183.965 29.9036 185.02 29.5781C186.074 29.2526 187.311 29.0898 188.73 29.0898H190.898ZM205.254 25.5742V42H199.785V20.8672H204.941L205.254 25.5742ZM210.234 20.7109L210.156 26.1602C209.909 26.1081 209.609 26.069 209.258 26.043C208.919 26.0169 208.62 26.0039 208.359 26.0039C207.747 26.0039 207.227 26.1016 206.797 26.2969C206.367 26.4792 206.009 26.7591 205.723 27.1367C205.449 27.5013 205.241 27.957 205.098 28.5039C204.954 29.0508 204.87 29.6693 204.844 30.3594L203.809 29.9688C203.809 28.5885 203.913 27.3255 204.121 26.1797C204.342 25.0208 204.668 24.0182 205.098 23.1719C205.527 22.3125 206.042 21.6484 206.641 21.1797C207.253 20.7109 207.943 20.4766 208.711 20.4766C208.971 20.4766 209.245 20.5026 209.531 20.5547C209.831 20.5938 210.065 20.6458 210.234 20.7109Z" fill="black"/>
</svg>
